# xmcd
#
# Track frame offsets: 
#        150
#        25726
#        35814
#        56439
#        69257
#        106967
#        125129
#        140268
#        160494
#        181415
#        194775
#        218448
#        234510
#        249525
#        263002
#        291637
#        311733
#        331799
#
# Disc length: 4767 seconds
#
# Revision: 1
# Processed by: cddbd v1.5.2PL0 Copyright (c) Steve Scherf et al.
# Submitted via: ExactAudioCopy v1.3
#
DISCID=11129d12
DTITLE=Various Artist - Akella Presents - vol.48 - Zydeco!  CD2
DYEAR=2015
DGENRE=Zydeco/Blues
TTITLE0=Beau Jocque - What Ya Gonna Do
TTITLE1=C.J. Chenier - Everybody Needs A Little Monkey Business
TTITLE2=Buckwheat Zydeco - I'm On The Wonder
TTITLE3=Doug Legacy and Zydeco Party Band - Evil
TTITLE4=Major Handy - I'm On The Wonder
TTITLE5=The Deadweights and Memphis Roots - All You Ever Do Is Bring Me 
TTITLE5=Down
TTITLE6=The Creole Zydeco Farmers - Creole Farmers Stomp
TTITLE7=Queen Ida and Her Zydeco Band - My Girl Josephine
TTITLE8=Boozoo Chavis and the Magic Sounds - Keep Your Dress Tail Down
TTITLE9=Christian Dozzler and The Blues Wave - Walking To New Orleans
TTITLE10=Bill Sims - Black Mare
TTITLE11=Joe K K and Zydeco Force - Hoochie Coochie
TTITLE12=Steve Riley and the Mamou Playboys - I Woke Up Thuis Morning
TTITLE13=Clifton Chenier - Hello Rosa Lee
TTITLE14=Beau Jocque and the Zydeco Hi-Rollers - I'm On the Wonder
TTITLE15=Rosie Ledet - You're No Good For Me
TTITLE16=Keith Frank - Co Fa
TTITLE17=C. J. Chenier - Got You on my Mind
EXTD=
EXTT0=
EXTT1=
EXTT2=
EXTT3=
EXTT4=
EXTT5=
EXTT6=
EXTT7=
EXTT8=
EXTT9=
EXTT10=
EXTT11=
EXTT12=
EXTT13=
EXTT14=
EXTT15=
EXTT16=
EXTT17=
PLAYORDER=
